<svg width="86" height="134" viewBox="0 0 86 134" fill="none" xmlns="http://www.w3.org/2000/svg">
<path d="M20.345 91.67L19.605 61.145H28.115C34.405 61.145 40.14 60.59 45.32 59.48C50.5 58.37 54.6317 56.2117 57.715 53.005C60.7983 49.7983 62.34 45.1117 62.34 38.945C62.34 33.025 60.5517 28.4 56.975 25.07C53.3983 21.6167 48.65 19.89 42.73 19.89C36.5633 19.89 31.7533 21.6167 28.3 25.07C24.8467 28.4 23.12 32.9633 23.12 38.76H0.735C0.611667 31.36 2.215 24.7617 5.545 18.965C8.875 13.1683 13.685 8.60499 19.975 5.27499C26.3883 1.94499 34.035 0.279998 42.915 0.279998C51.1783 0.279998 58.455 1.82166 64.745 4.90499C71.1583 7.98832 76.1533 12.4283 79.73 18.225C83.43 23.8983 85.28 30.8667 85.28 39.13C85.28 47.64 83.3683 54.67 79.545 60.22C75.845 65.77 70.7267 69.9017 64.19 72.615C57.7767 75.3283 50.315 76.7467 41.805 76.87L41.25 91.67H20.345ZM30.89 133.295C26.5733 133.295 22.9967 131.938 20.16 129.225C17.4467 126.512 16.09 123.243 16.09 119.42C16.09 115.473 17.4467 112.143 20.16 109.43C22.9967 106.717 26.5733 105.36 30.89 105.36C35.2067 105.36 38.7217 106.717 41.435 109.43C44.1483 112.143 45.505 115.473 45.505 119.42C45.505 123.243 44.1483 126.512 41.435 129.225C38.7217 131.938 35.2067 133.295 30.89 133.295Z" fill="#FF6300"/>
</svg>
